<svg id="Capa_1" enable-background="new 0 0 512 512" height="512" viewBox="0 0 512 512" width="512" xmlns="http://www.w3.org/2000/svg"><path d="m389.86 384.637c-36.75 29.269-83.262 46.763-133.857 46.763-50.596 0-97.108-17.495-133.859-46.765-45.641 25.163-91.903 63.204-118.827 120.044-1.611 3.402.91 7.321 4.674 7.321h496.017c3.764 0 6.285-3.919 4.674-7.321-26.922-56.839-73.183-94.878-118.822-120.042z" fill="#cecece"/><path d="m130.208 465.387h45.427c8.558 0 15.495 6.938 15.495 15.495v31.118h-76.418v-31.118c.001-8.558 6.939-15.495 15.496-15.495z" fill="#ffe55a"/><path d="m175.636 465.387h-18.544c8.558 0 15.496 6.938 15.496 15.496v31.117h18.544v-31.118c-.001-8.558-6.938-15.495-15.496-15.495z" fill="#ffd500"/><path d="m245.953 465.387h135.839c8.558 0 15.496 6.938 15.496 15.495v31.118h-166.83v-31.118c-.001-8.558 6.937-15.495 15.495-15.495z" fill="#ffe55a"/><path d="m381.792 465.387h-18.544c8.558 0 15.495 6.938 15.495 15.496v31.117h18.544v-31.118c0-8.558-6.938-15.495-15.495-15.495z" fill="#ffd500"/><path d="m40.709 215.7c0-16.243 1.805-32.062 5.201-47.278h-25.269c-11.4 0-20.641 9.259-20.641 20.68v53.195c0 11.422 9.241 20.68 20.641 20.68h25.269c-3.397-15.216-5.201-31.034-5.201-47.277z" fill="#ffe55a"/><path d="m491.359 168.422h-25.269c3.396 15.216 5.201 31.035 5.201 47.278s-1.805 32.061-5.201 47.278h25.269c11.4 0 20.641-9.259 20.641-20.68v-53.195c0-11.422-9.241-20.681-20.641-20.681z" fill="#ffe55a"/><path d="m20.641 244.397c-11.4 0-20.641-9.259-20.641-20.68v18.581c0 11.421 9.241 20.68 20.641 20.68h25.269c-1.361-6.099-2.454-12.299-3.29-18.581z" fill="#ffd500"/><path d="m491.359 244.397h-21.979c-.836 6.281-1.929 12.481-3.29 18.581h25.269c11.4 0 20.641-9.259 20.641-20.68v-18.581c0 11.421-9.241 20.68-20.641 20.68z" fill="#ffd500"/><ellipse cx="256" cy="215.7" fill="#e7e7e7" rx="215.291" ry="215.7"/><path d="m101.167 397.156c41.647 35.705 95.722 57.279 154.833 57.279s113.186-21.574 154.833-57.28c-6.958-4.487-13.972-8.659-20.973-12.519-36.75 29.269-83.262 46.763-133.856 46.763-50.596 0-97.108-17.495-133.859-46.765-7.003 3.862-14.018 8.034-20.978 12.522z" fill="#bfbfbf"/><path d="m256 412.82c-115.794 0-210.221-91.594-215.08-206.41-.13 3.082-.212 6.176-.212 9.29 0 119.128 96.389 215.7 215.291 215.7s215.291-96.572 215.291-215.7c0-3.114-.081-6.209-.211-9.29-4.858 114.816-99.285 206.41-215.079 206.41z" fill="#cecece"/><path d="m256 105.606c92.928 0 168.261 30.434 168.261 110.006 0 93.105-75.333 168.581-168.261 168.581s-168.261-75.476-168.261-168.58c0-79.573 75.333-110.007 168.261-110.007z" fill="#838383"/><path d="m256 365.613c-89.545 0-162.741-70.084-167.953-158.488-.197 2.768-.309 5.591-.309 8.488 0 93.105 75.333 168.581 168.261 168.581s168.261-75.476 168.261-168.581c0-2.897-.112-5.721-.309-8.488-5.21 88.404-78.406 158.488-167.951 158.488z" fill="#707070"/><path d="m256 140.339c72.633 0 131.513 22.845 131.513 82.577 0 69.889-58.88 126.546-131.513 126.546s-131.513-56.656-131.513-126.546c0-59.732 58.88-82.577 131.513-82.577z" fill="#fed2a4"/><path d="m256 330.881c-69.094 0-125.739-51.272-131.094-116.432-.274 2.737-.418 5.556-.418 8.466 0 69.889 58.88 126.546 131.513 126.546s131.513-56.656 131.513-126.546c0-2.91-.144-5.73-.418-8.466-5.357 65.16-62.002 116.432-131.096 116.432z" fill="#ffbd86"/><path d="m197.249 193.818c-7.901 0-13.86 7.563-13.86 17.592s5.959 17.592 13.86 17.592 13.859-7.563 13.859-17.592-5.958-17.592-13.859-17.592z" fill="#444"/><path d="m314.751 193.818c-7.901 0-13.86 7.563-13.86 17.592s5.959 17.592 13.86 17.592 13.86-7.563 13.86-17.592-5.959-17.592-13.86-17.592z" fill="#444"/><path d="m281.701 257.775c-2.645 0-4.978 1.329-6.374 3.353l-.007-.005c-.255.334-6.389 8.189-19.319 8.189s-19.064-7.855-19.26-8.109l-.009.006c-1.389-2.071-3.751-3.434-6.432-3.434-4.276 0-7.742 3.466-7.742 7.742 0 1.784.61 3.423 1.624 4.732l-.006.004c.428.594 10.719 14.542 31.825 14.542s31.396-13.948 31.825-14.542l-.006-.004c1.014-1.309 1.624-2.948 1.624-4.732-.001-4.276-3.467-7.742-7.743-7.742z" fill="#ff4755"/></svg>