<svg id="Icon_Set" enable-background="new 0 0 256 256" height="512" viewBox="0 0 256 256" width="512" xmlns="http://www.w3.org/2000/svg"><circle cx="127.998" cy="128.001" fill="#f9d335" r="43.183"/><circle cx="108.246" cy="49.886" fill="#3193f3" r="19.753"/><circle cx="44.235" cy="217.939" fill="#44c7b6" r="23.53"/><circle cx="202.881" cy="160.059" fill="#ff4a73" r="22.962"/><circle cx="219.49" cy="42.538" fill="#5fcdff" r="25.35"/><path d="m171.18 128c0 23.85-19.33 43.18-43.18 43.18-2.56 0-5.07-.22-7.5-.65 20.28-3.55 35.68-21.24 35.68-42.53s-15.4-38.98-35.68-42.53c2.43-.43 4.94-.65 7.5-.65 23.85 0 43.18 19.33 43.18 43.18z" fill="#f2c300"/><path d="m135.5 170.53c-2.43.43-4.94.65-7.5.65-23.85 0-43.18-19.33-43.18-43.18s19.33-43.18 43.18-43.18c2.56 0 5.07.22 7.5.65-20.28 3.55-35.68 21.24-35.68 42.53s15.4 38.98 35.68 42.53z" fill="#f9e27d"/><path d="m115.75 68.16c-2.31.96-4.85 1.48-7.5 1.48-10.91 0-19.76-8.84-19.76-19.75s8.85-19.76 19.76-19.76c2.65 0 5.19.52 7.5 1.48-7.19 2.95-12.26 10.03-12.26 18.28s5.07 15.32 12.26 18.27z" fill="#35b1fc"/><path d="m244.84 42.54c0 14-11.35 25.35-25.35 25.35-2.61 0-5.13-.39-7.5-1.13 10.34-3.19 17.85-12.83 17.85-24.22s-7.51-21.03-17.85-24.22c2.37-.74 4.89-1.13 7.5-1.13 14 0 25.35 11.35 25.35 25.35z" fill="#30b6ff"/><path d="m226.99 66.76c-2.37.74-4.89 1.13-7.5 1.13-14 0-25.35-11.35-25.35-25.35s11.35-25.35 25.35-25.35c2.61 0 5.13.39 7.5 1.13-10.34 3.19-17.85 12.83-17.85 24.22s7.51 21.03 17.85 24.22z" fill="#73d7f9"/><path d="m225.84 160.06c0 12.68-10.28 22.96-22.96 22.96-2.63 0-5.15-.44-7.5-1.26 9-3.1 15.46-11.65 15.46-21.7s-6.46-18.6-15.46-21.7c2.35-.82 4.87-1.26 7.5-1.26 12.68 0 22.96 10.28 22.96 22.96z" fill="#ea2a6a"/><path d="m210.38 181.76c-2.35.82-4.87 1.26-7.5 1.26-12.68 0-22.96-10.28-22.96-22.96s10.28-22.96 22.96-22.96c2.63 0 5.15.44 7.5 1.26-9 3.1-15.46 11.65-15.46 21.7s6.46 18.6 15.46 21.7z" fill="#f973a3"/><path d="m67.76 217.94c0 12.99-10.53 23.53-23.53 23.53-2.62 0-5.14-.43-7.49-1.23 9.32-3.13 16.02-11.94 16.02-22.3 0-10.37-6.7-19.17-16.02-22.3 2.35-.8 4.87-1.23 7.49-1.23 13 0 23.53 10.53 23.53 23.53z" fill="#3bb2a0"/><path d="m51.74 240.24c-2.36.8-4.88 1.23-7.51 1.23-12.99 0-23.52-10.54-23.52-23.53 0-13 10.53-23.53 23.52-23.53 2.63 0 5.15.43 7.51 1.23-9.32 3.12-16.03 11.92-16.03 22.3 0 10.37 6.71 19.18 16.03 22.3z" fill="#4bdbc3"/><g fill="#5f266d"><path d="m128 80.82c-26.02 0-47.18 21.16-47.18 47.18s21.16 47.18 47.18 47.18c26.01 0 47.18-21.16 47.18-47.18s-21.17-47.18-47.18-47.18zm0 86.36c-21.61 0-39.18-17.57-39.18-39.18 0-21.6 17.57-39.18 39.18-39.18 21.6 0 39.18 17.58 39.18 39.18 0 21.61-17.58 39.18-39.18 39.18z"/><path d="m235.89 66.87c23.926-16.175 12.444-53.68-16.4-53.68-9.41 0-17.79 4.45-23.16 11.35-19.6-13-43.09-20.57-68.33-20.57-68.39 0-124.03 55.64-124.03 124.03 0 25.86 7.95 49.89 21.54 69.78-5.41 5.03-8.8 12.21-8.8 20.16 0 25.889 32.704 37.429 48.95 17.25 18.33 10.7 39.63 16.84 62.34 16.84 68.39 0 124.03-55.64 124.03-124.03 0-22.22-5.87-43.08-16.14-61.13zm-16.4-45.68c20.734 0 29.315 26.865 12.22 38.85-2.2 1.54-4.71 2.68-7.41 3.3-15.991 3.74-30.008-11.423-25.24-27 .8-2.64 2.11-5.07 3.8-7.17 3.91-4.86 9.92-7.98 16.63-7.98zm-194.78 196.75c0-5.3 2.13-10.13 5.57-13.64 1.87-1.92 4.13-3.46 6.66-4.47 15.166-6.201 31.036 8.363 25.87 24.11-.84 2.6-2.21 4.97-3.99 6.96-11.854 13.381-34.11 4.959-34.11-12.96zm103.29 26.09c-21.23 0-41.14-5.73-58.27-15.73 9.594-23.437-15.184-46.165-37.64-35.06-12.69-18.6-20.12-41.07-20.12-65.24 0-63.98 52.05-116.03 116.03-116.03 23.77 0 45.89 7.18 64.31 19.5-9.426 23.026 12.683 46.859 36.39 38.93 9.75 16.98 15.33 36.65 15.33 57.6 0 63.98-52.05 116.03-116.03 116.03z"/><path d="m213.1 135.11c4.144-48.464-33.498-90.842-82.23-92.46-3.07-9.57-12.05-16.52-22.62-16.52-14.884 0-26.104 13.582-23.35 28.17-25.29 14.84-42.3 42.32-42.3 73.7 0 47.09 38.31 85.4 85.4 85.4 25.38 0 48.2-11.12 63.85-28.75 17.584 7.983 37.99-4.937 37.99-24.59 0-11.26-6.93-20.92-16.74-24.95zm-16 43.01c-2.61-.84-4.98-2.23-6.96-4.03-13.422-12.193-3.477-34.464 14.14-32.93 2.79.19 5.4 1 7.72 2.28 5.86 3.23 9.84 9.47 9.84 16.62 0 12.789-12.476 21.969-24.74 18.06zm-88.85-143.99c6.13 0 11.46 3.53 14.05 8.66 1.09 2.13 1.7 4.55 1.7 7.1 0 15.83-20.901 21.741-29.2 8.2-1.39-2.27-2.22-4.92-2.3-7.75-.529-7.928 6.283-16.21 15.75-16.21zm19.75 171.27c-42.68 0-77.4-34.72-77.4-77.4 0-27.95 14.89-52.49 37.17-66.1 12.041 20.467 43.43 12.437 44.21-11.2 43.15 2.198 76.229 39.617 73.24 82.51-25.118-2.612-39.926 29.6-20.18 47.05-14.16 15.45-34.49 25.14-57.04 25.14z"/></g></svg>