<svg height="512pt" viewBox="0 -40 512 512" width="512pt" xmlns="http://www.w3.org/2000/svg"><path d="m322.742188 113.894531c-3.046876 0-5.953126-1.742187-7.289063-4.6875l-34.382813-75.632812-75.632812 34.375c-4.054688 1.851562-8.773438.039062-10.59375-3.96875-1.828125-4.023438-.054688-8.765625 3.96875-10.59375l82.914062-37.6875c4.0625-1.859375 8.773438-.039063 10.59375 3.96875l37.695313 82.914062c1.828125 4.023438.054687 8.769531-3.96875 10.59375-1.078125.492188-2.203125.71875-3.304687.71875zm0 0" fill="#eceaec"/><path d="m354.492188 108.832031-137.207032-51.453125 1.964844 29.121094 49.34375 28.972656c26.238281 7.21875 49.871094 9.90625 72.027344 4.472656 4.816406-1.179687 9.453125-2.640624 13.882812-4.367187 3.089844-1.203125 3.09375-5.582031-.011718-6.746094zm0 0" fill="#c3ddff"/><path d="m302.945312 114.09375-18.660156-6.285156c-28.808594-11.542969-51.949218-29.738282-67-50.429688l-41.019531-15.382812c-3.097656-1.164063-5.988281 2.128906-4.457031 5.0625 13.777344 26.371094 40.703125 50.304687 75.863281 64.386718l18.660156 6.289063c26.234375 7.21875 52.132813 7.644531 74.285157 2.210937-12.203126-.40625-24.917969-2.339843-37.671876-5.851562zm0 0" fill="#a4ccff"/><path d="m263.3125 112.445312c-2.816406-6.332031-11.808594-6.332031-14.621094 0l-24.691406 55.550782 30.75 10.003906 33.25-10.003906zm0 0" fill="#dad8db"/><path d="m423.996094 263.992188-228.996094-38.992188-143 198.996094h436c0-62.03125-24.34375-118.375-64.003906-160.003906zm0 0" fill="#eceaec"/><path d="m87.996094 264c-39.652344 41.625-63.996094 97.96875-63.996094 159.996094h96c0-62.035156 24.351562-118.375 64.019531-159.996094l-45.019531-14.667969zm0 0" fill="#dad8db"/><path d="m392 391.996094h-230.652344l210.335938-.003906c-14.003906-50.738282-60.492188-87.996094-115.683594-87.996094-55.195312 0-101.683594 37.261718-115.6875 88h-20.3125c-4.417969 0-8 3.582031-8 8v24h288v-24c0-4.417969-3.582031-8-8-8zm0 0" fill="#c8c5c9"/><path d="m264 391.996094 90.929688-.003906c-12.71875-39.332032-48.199219-68.414063-90.929688-71.667969zm0 0" fill="#dad8db"/><path d="m248 320.324219c-42.730469 3.253906-78.214844 32.335937-90.929688 71.671875h90.929688zm0 0" fill="#dad8db"/><path d="m120 343.996094c0 2.347656-.503906 4.574218-1.410156 6.582031-2.511719 5.554687-8.097656 6.585937-14.589844 6.585937-8.835938 0-14.167969-4.332031-14.167969-13.167968 0-6.484375 2.027344-12.070313 7.578125-14.582032 2.007813-.910156 4.238282-1.417968 6.589844-1.417968 8.835938 0 16 7.164062 16 16zm0 0" fill="#a4ccff"/><path d="m285.039062 30.980469c-.9375 0-1.882812-.164063-2.804687-.507813-4.140625-1.554687-6.234375-6.164062-4.6875-10.296875l5.617187-14.984375c1.554688-4.15625 6.1875-6.21875 10.296876-4.6875 4.140624 1.554688 6.234374 6.164063 4.6875 10.296875l-5.617188 14.984375c-1.203125 3.21875-4.257812 5.195313-7.492188 5.195313zm0 0" fill="#c8c5c9"/><path d="m112 351.996094c-8.835938 0-16-7.164063-16-16 0-2.34375.503906-4.574219 1.410156-6.582032-5.558594 2.507813-9.410156 8.089844-9.410156 14.582032 0 8.835937 7.164062 16 16 16 6.492188 0 12.078125-3.863282 14.589844-9.417969-2.007813.90625-4.246094 1.417969-6.589844 1.417969zm0 0" fill="#8bb3ea"/><path d="m424 343.996094c0 2.347656-.503906 4.574218-1.410156 6.578125-2.511719 5.554687-8.097656 8.613281-14.589844 8.613281-8.835938 0-14.4375-6.351562-14.4375-15.191406 0-6.488282 2.300781-12.074219 7.851562-14.585938 2.007813-.90625 4.238282-1.414062 6.585938-1.414062 8.835938 0 16 7.164062 16 16zm0 0" fill="#c3ddff"/><path d="m416 351.996094c-8.835938 0-16-7.164063-16-16 0-2.34375.507812-4.578125 1.414062-6.585938-5.554687 2.507813-9.414062 8.09375-9.414062 14.585938 0 8.835937 7.164062 16 16 16 6.492188 0 12.082031-3.863282 14.589844-9.421875-2.007813.90625-4.246094 1.421875-6.589844 1.421875zm0 0" fill="#a4ccff"/><path d="m256 191.996094-78.332031 58.003906 6.347656 13.996094h239.980469c-42.253906-44.328125-101.917969-72-167.996094-72zm0 0" fill="#c8c5c9"/><path d="m87.996094 263.996094h96.019531c31.730469-33.285156 73.289063-57.171875 119.984375-66.996094-15.492188-3.261719-31.539062-5-48-5-66.078125-.003906-125.746094 27.667969-168.003906 71.996094zm0 0" fill="#b6b1b7"/><path d="m320 184.878906-103 6.285156 15-23.167968h80c4.417969 0 8 3.582031 8 8zm0 0" fill="#eceaec"/><path d="m232 168.878906v-.882812h-32c-4.417969 0-8 3.582031-8 8v24.882812h128v-16h-72c-8.835938 0-16-7.164062-16-16zm0 0" fill="#dad8db"/><path d="m504 431.996094h-496c-4.421875 0-8-3.578125-8-8s3.578125-8 8-8h496c4.421875 0 8 3.578125 8 8s-3.578125 8-8 8zm0 0" fill="#ecbd83"/></svg>