<svg xmlns="http://www.w3.org/2000/svg" height="511pt" version="1.1" viewBox="0 0 511.99966 511" width="511pt">
<g id="surface1">
<path d="M 511.988281 256.484375 C 511.988281 258.113281 511.96875 259.734375 511.9375 261.355469 C 511.925781 262.085938 511.90625 262.8125 511.886719 263.542969 C 511.867188 264.492188 511.835938 265.445312 511.796875 266.382812 C 511.769531 267.304688 511.726562 268.234375 511.675781 269.152344 C 511.648438 269.761719 511.617188 270.382812 511.578125 270.992188 C 511.546875 271.644531 511.507812 272.285156 511.46875 272.921875 C 511.398438 274.011719 511.328125 275.09375 511.238281 276.183594 C 511.046875 278.671875 510.828125 281.144531 510.566406 283.613281 C 510.488281 284.371094 510.40625 285.121094 510.316406 285.871094 C 510.199219 286.933594 510.066406 287.984375 509.9375 289.023438 C 509.859375 289.652344 509.777344 290.273438 509.6875 290.890625 C 509.628906 291.414062 509.558594 291.933594 509.476562 292.453125 C 509.316406 293.613281 509.148438 294.761719 508.96875 295.910156 C 508.835938 296.761719 508.699219 297.613281 508.558594 298.472656 C 508.246094 300.371094 507.917969 302.25 507.558594 304.121094 C 507.457031 304.660156 507.359375 305.210938 507.246094 305.75 C 506.609375 309.0625 505.898438 312.351562 505.117188 315.601562 C 504.9375 316.359375 504.757812 317.121094 504.566406 317.878906 C 503.976562 320.300781 503.347656 322.710938 502.679688 325.101562 C 502.519531 325.699219 502.347656 326.300781 502.179688 326.890625 C 501.957031 327.640625 501.75 328.378906 501.527344 329.128906 C 501.308594 329.871094 501.089844 330.609375 500.859375 331.351562 C 500.609375 332.167969 500.359375 332.988281 500.097656 333.800781 C 499.578125 335.429688 499.046875 337.058594 498.5 338.679688 C 497.347656 342.089844 496.117188 345.457031 494.828125 348.808594 C 494.589844 349.429688 494.339844 350.046875 494.097656 350.660156 C 493.160156 353.027344 492.1875 355.378906 491.179688 357.71875 C 490.890625 358.398438 490.589844 359.078125 490.300781 359.757812 C 489.117188 362.429688 487.890625 365.078125 486.621094 367.707031 C 486.257812 368.46875 485.890625 369.226562 485.507812 369.976562 C 484.140625 372.738281 482.710938 375.46875 481.238281 378.175781 L 481.25 378.175781 C 481.078125 378.488281 480.910156 378.796875 480.738281 379.105469 C 480.488281 379.546875 480.269531 379.996094 480.019531 380.4375 C 479.757812 380.917969 479.480469 381.40625 479.210938 381.875 C 479.128906 382.015625 479.058594 382.148438 478.980469 382.285156 C 478.359375 383.375 477.738281 384.457031 477.109375 385.535156 C 475.988281 387.476562 474.828125 389.394531 473.640625 391.304688 C 473.339844 391.785156 473.039062 392.265625 472.730469 392.746094 C 472.589844 392.976562 472.449219 393.207031 472.300781 393.4375 C 471.921875 394.046875 471.53125 394.65625 471.140625 395.257812 C 470.988281 395.496094 470.832031 395.726562 470.679688 395.964844 C 470.351562 396.464844 470.019531 396.964844 469.691406 397.464844 C 469.648438 397.527344 469.609375 397.597656 469.570312 397.65625 C 469.101562 398.355469 468.640625 399.054688 468.171875 399.746094 C 467.769531 400.324219 467.378906 400.90625 466.980469 401.484375 C 466.839844 401.695312 466.691406 401.90625 466.550781 402.105469 C 465.660156 403.394531 464.761719 404.664062 463.851562 405.925781 C 463.550781 406.34375 463.25 406.753906 462.960938 407.164062 C 462.519531 407.765625 462.089844 408.355469 461.652344 408.933594 C 461.402344 409.273438 461.152344 409.613281 460.902344 409.945312 C 460.589844 410.355469 460.28125 410.773438 459.960938 411.183594 C 459.261719 412.113281 458.550781 413.035156 457.832031 413.953125 C 457.410156 414.496094 456.992188 415.035156 456.5625 415.566406 C 456.550781 415.574219 456.542969 415.59375 456.53125 415.605469 C 456.441406 415.714844 456.359375 415.816406 456.269531 415.925781 C 455.75 416.574219 455.230469 417.234375 454.699219 417.875 C 454.570312 418.035156 454.441406 418.195312 454.3125 418.355469 C 454.191406 418.503906 454.070312 418.65625 453.941406 418.804688 C 453.671875 419.144531 453.390625 419.484375 453.109375 419.8125 C 452.761719 420.234375 452.410156 420.65625 452.0625 421.074219 C 451.871094 421.292969 451.691406 421.515625 451.5 421.734375 C 450.761719 422.613281 450.011719 423.484375 449.25 424.355469 C 448.691406 425.015625 448.113281 425.664062 447.542969 426.3125 C 447.210938 426.683594 446.890625 427.042969 446.5625 427.402344 C 446.132812 427.875 445.710938 428.355469 445.28125 428.824219 C 445.140625 428.972656 445.011719 429.113281 444.882812 429.265625 C 444.3125 429.882812 443.742188 430.492188 443.183594 431.105469 C 443.011719 431.285156 442.851562 431.453125 442.683594 431.632812 C 442.28125 432.0625 441.871094 432.492188 441.460938 432.921875 C 441.0625 433.34375 440.652344 433.761719 440.253906 434.183594 C 440.070312 434.375 439.902344 434.554688 439.722656 434.734375 C 439.140625 435.332031 438.550781 435.933594 437.972656 436.523438 C 437.902344 436.582031 437.84375 436.652344 437.78125 436.714844 C 437.261719 437.242188 436.730469 437.761719 436.203125 438.292969 C 436.09375 438.402344 435.972656 438.511719 435.863281 438.632812 C 435.671875 438.8125 435.472656 439.011719 435.28125 439.203125 C 435.011719 439.464844 434.742188 439.722656 434.472656 439.984375 C 433.863281 440.59375 433.242188 441.191406 432.621094 441.78125 L 432.613281 441.78125 C 432.003906 442.363281 431.402344 442.933594 430.792969 443.503906 C 430.582031 443.691406 430.371094 443.882812 430.171875 444.074219 C 429.773438 444.453125 429.363281 444.824219 428.953125 445.203125 C 428.492188 445.621094 428.03125 446.042969 427.574219 446.460938 C 427.042969 446.933594 426.523438 447.402344 425.984375 447.882812 C 425.734375 448.101562 425.484375 448.332031 425.222656 448.550781 C 424.84375 448.894531 424.453125 449.234375 424.0625 449.5625 C 423.824219 449.78125 423.574219 449.992188 423.332031 450.203125 C 422.703125 450.753906 422.074219 451.292969 421.433594 451.832031 C 420.921875 452.261719 420.414062 452.691406 419.894531 453.121094 C 419.691406 453.300781 419.484375 453.472656 419.273438 453.640625 C 418.714844 454.113281 418.144531 454.574219 417.574219 455.042969 C 417.414062 455.164062 417.261719 455.292969 417.101562 455.421875 C 416.09375 456.242188 415.074219 457.050781 414.042969 457.871094 C 413.914062 457.960938 413.785156 458.0625 413.652344 458.171875 C 412.972656 458.703125 412.292969 459.222656 411.613281 459.753906 C 411.503906 459.832031 411.394531 459.921875 411.285156 460.003906 C 410.742188 460.410156 410.214844 460.820312 409.675781 461.222656 C 409.273438 461.53125 408.863281 461.832031 408.453125 462.132812 C 408.074219 462.421875 407.695312 462.703125 407.304688 462.980469 C 406.894531 463.28125 406.484375 463.582031 406.074219 463.882812 C 405.84375 464.050781 405.605469 464.222656 405.375 464.382812 C 404.785156 464.8125 404.183594 465.242188 403.585938 465.660156 C 403.222656 465.910156 402.863281 466.171875 402.496094 466.421875 C 402.175781 466.652344 401.855469 466.882812 401.523438 467.101562 C 400.835938 467.582031 400.144531 468.050781 399.453125 468.523438 C 398.765625 468.992188 398.066406 469.460938 397.363281 469.921875 C 397.226562 470.019531 397.074219 470.113281 396.933594 470.210938 C 396.90625 470.230469 396.875 470.25 396.84375 470.269531 C 396.335938 470.601562 395.824219 470.941406 395.304688 471.28125 C 395.285156 471.292969 395.265625 471.300781 395.234375 471.320312 C 394.542969 471.769531 393.84375 472.222656 393.144531 472.660156 C 392.433594 473.109375 391.726562 473.5625 391.015625 474 C 390.976562 474.03125 390.933594 474.050781 390.894531 474.082031 C 390.863281 474.101562 390.835938 474.121094 390.804688 474.140625 C 390.164062 474.53125 389.523438 474.929688 388.875 475.320312 C 388.625 475.480469 388.363281 475.632812 388.105469 475.78125 C 387.304688 476.269531 386.496094 476.75 385.683594 477.222656 C 385.117188 477.5625 384.554688 477.902344 383.984375 478.222656 C 383.445312 478.539062 382.894531 478.851562 382.355469 479.160156 C 382.144531 479.28125 381.933594 479.390625 381.734375 479.511719 C 381.617188 479.582031 381.496094 479.652344 381.375 479.710938 C 380.964844 479.941406 380.566406 480.171875 380.15625 480.390625 C 379.925781 480.519531 379.6875 480.652344 379.457031 480.78125 C 379.175781 480.941406 378.90625 481.089844 378.625 481.242188 C 378.105469 481.519531 377.585938 481.800781 377.066406 482.082031 C 376.617188 482.332031 376.164062 482.570312 375.714844 482.800781 C 375.574219 482.878906 375.425781 482.960938 375.285156 483.03125 C 374.875 483.25 374.464844 483.46875 374.046875 483.679688 C 373.734375 483.839844 373.417969 484.011719 373.105469 484.171875 C 372.917969 484.269531 372.726562 484.371094 372.535156 484.460938 C 371.804688 484.832031 371.085938 485.199219 370.367188 485.558594 C 370.066406 485.710938 369.757812 485.859375 369.457031 486.011719 C 369.285156 486.101562 369.117188 486.179688 368.957031 486.261719 C 368.296875 486.589844 367.636719 486.910156 366.976562 487.21875 C 366.875 487.28125 366.777344 487.320312 366.675781 487.371094 C 365.945312 487.71875 365.207031 488.070312 364.457031 488.421875 C 364.238281 488.53125 364.015625 488.628906 363.785156 488.730469 C 363.027344 489.089844 362.257812 489.441406 361.496094 489.78125 C 361.328125 489.859375 361.167969 489.929688 361.007812 490 C 360.515625 490.230469 360.015625 490.449219 359.527344 490.671875 C 359.328125 490.75 359.136719 490.839844 358.9375 490.929688 C 358.648438 491.058594 358.355469 491.179688 358.066406 491.308594 C 357.65625 491.488281 357.238281 491.671875 356.816406 491.851562 C 356.246094 492.089844 355.675781 492.339844 355.105469 492.570312 C 354.328125 492.898438 353.539062 493.230469 352.757812 493.550781 C 349.765625 494.769531 346.757812 495.929688 343.71875 497.039062 C 342.988281 497.308594 342.257812 497.570312 341.527344 497.820312 C 341.46875 497.851562 341.398438 497.871094 341.339844 497.890625 C 341.246094 497.929688 341.15625 497.960938 341.066406 497.988281 C 340.90625 498.050781 340.746094 498.109375 340.589844 498.160156 C 340.386719 498.230469 340.199219 498.300781 340 498.359375 C 339.6875 498.480469 339.367188 498.578125 339.058594 498.691406 C 338.839844 498.769531 338.628906 498.839844 338.40625 498.910156 C 338.308594 498.949219 338.199219 498.980469 338.097656 499.019531 C 337.386719 499.257812 336.6875 499.488281 335.976562 499.71875 C 335.886719 499.757812 335.808594 499.78125 335.71875 499.808594 C 335.199219 499.980469 334.6875 500.148438 334.167969 500.308594 C 333.957031 500.378906 333.75 500.449219 333.539062 500.507812 C 333.070312 500.660156 332.597656 500.808594 332.117188 500.960938 C 331.9375 501.019531 331.757812 501.070312 331.578125 501.128906 C 330.597656 501.429688 329.617188 501.730469 328.628906 502.019531 C 327.777344 502.269531 326.929688 502.519531 326.078125 502.757812 C 324.949219 503.078125 323.820312 503.390625 322.6875 503.6875 C 322.488281 503.75 322.277344 503.800781 322.078125 503.859375 C 322.007812 503.878906 321.9375 503.898438 321.871094 503.910156 C 321.621094 503.980469 321.378906 504.050781 321.128906 504.109375 C 320.847656 504.179688 320.578125 504.257812 320.300781 504.320312 C 320.039062 504.390625 319.78125 504.460938 319.507812 504.53125 C 318.679688 504.738281 317.839844 504.949219 317.007812 505.148438 C 316.960938 505.167969 316.917969 505.179688 316.871094 505.1875 C 316.449219 505.289062 316.019531 505.390625 315.589844 505.488281 C 315 505.640625 314.410156 505.777344 313.808594 505.910156 C 313.558594 505.96875 313.320312 506.027344 313.070312 506.078125 C 313.058594 506.089844 313.039062 506.089844 313.019531 506.089844 C 312.851562 506.128906 312.679688 506.167969 312.507812 506.210938 C 312.050781 506.320312 311.578125 506.417969 311.109375 506.519531 C 310.269531 506.710938 309.421875 506.890625 308.570312 507.058594 C 307.71875 507.238281 306.871094 507.417969 306.019531 507.578125 C 305.5 507.6875 304.980469 507.789062 304.460938 507.890625 C 304.308594 507.917969 304.148438 507.949219 303.992188 507.980469 C 303.101562 508.148438 302.199219 508.308594 301.308594 508.46875 C 300.832031 508.550781 300.351562 508.640625 299.871094 508.71875 C 299.390625 508.808594 298.910156 508.890625 298.429688 508.960938 C 298.339844 508.980469 298.25 509 298.160156 509.007812 C 297.929688 509.050781 297.699219 509.089844 297.46875 509.117188 C 297.039062 509.199219 296.601562 509.269531 296.160156 509.328125 C 296.019531 509.359375 295.878906 509.378906 295.730469 509.398438 C 295.019531 509.519531 294.300781 509.617188 293.589844 509.730469 C 293.519531 509.738281 293.441406 509.75 293.371094 509.757812 C 293.289062 509.769531 293.222656 509.777344 293.140625 509.789062 C 292.421875 509.898438 291.691406 510 290.960938 510.097656 C 290.730469 510.128906 290.5 510.160156 290.269531 510.1875 C 289.722656 510.269531 289.160156 510.339844 288.601562 510.410156 C 288.371094 510.4375 288.132812 510.46875 287.890625 510.5 C 287.140625 510.597656 286.382812 510.6875 285.632812 510.769531 C 285.519531 510.789062 285.421875 510.800781 285.3125 510.808594 C 284.429688 510.910156 283.5625 511.007812 282.679688 511.097656 C 282.5625 511.109375 282.441406 511.117188 282.320312 511.128906 C 282.273438 511.140625 282.222656 511.140625 282.171875 511.148438 C 281.230469 511.238281 280.292969 511.328125 279.339844 511.417969 C 279.101562 511.4375 278.851562 511.457031 278.601562 511.488281 C 278.390625 511.5 278.171875 511.519531 277.953125 511.539062 C 277.542969 511.578125 277.121094 511.609375 276.703125 511.640625 C 276.371094 511.667969 276.042969 511.699219 275.703125 511.71875 C 275.050781 511.769531 274.390625 511.820312 273.722656 511.859375 C 273.042969 511.910156 272.363281 511.957031 271.683594 511.988281 C 271.351562 512.019531 271.011719 512.039062 270.683594 512.050781 C 270.261719 512.078125 269.851562 512.097656 269.433594 512.117188 C 268.933594 512.148438 268.421875 512.167969 267.921875 512.1875 C 267.59375 512.207031 267.261719 512.230469 266.921875 512.238281 C 266.621094 512.25 266.324219 512.269531 266.023438 512.269531 C 265.550781 512.300781 265.074219 512.308594 264.59375 512.320312 C 264.421875 512.328125 264.253906 512.339844 264.082031 512.339844 C 264.050781 512.347656 264.03125 512.347656 264.003906 512.347656 C 263.992188 512.347656 263.984375 512.347656 263.972656 512.339844 C 263.84375 512.347656 263.710938 512.359375 263.59375 512.359375 L 263.371094 512.359375 C 262.710938 512.378906 262.054688 512.398438 261.394531 512.410156 C 260.851562 512.429688 260.3125 512.4375 259.761719 512.4375 C 259.574219 512.449219 259.394531 512.449219 259.203125 512.449219 C 258.132812 512.457031 257.074219 512.46875 256.003906 512.46875 C 255.035156 512.46875 254.0625 512.457031 253.09375 512.449219 L 252.695312 512.449219 C 252.535156 512.449219 252.363281 512.4375 252.203125 512.4375 C 251.832031 512.4375 251.472656 512.429688 251.113281 512.417969 C 250.292969 512.410156 249.484375 512.390625 248.671875 512.367188 C 248.582031 512.359375 248.503906 512.359375 248.414062 512.359375 L 247.664062 512.328125 C 246.804688 512.308594 245.945312 512.277344 245.082031 512.238281 C 245.042969 512.238281 245.003906 512.238281 244.972656 512.230469 C 244.863281 512.230469 244.753906 512.230469 244.644531 512.21875 C 244.535156 512.21875 244.425781 512.207031 244.324219 512.199219 C 244.195312 512.199219 244.074219 512.1875 243.953125 512.1875 C 243.722656 512.179688 243.492188 512.167969 243.265625 512.160156 C 242.644531 512.128906 242.023438 512.097656 241.402344 512.058594 C 240.515625 512.007812 239.632812 511.957031 238.753906 511.890625 C 238.023438 511.847656 237.285156 511.800781 236.554688 511.738281 C 235.714844 511.679688 234.882812 511.609375 234.054688 511.539062 C 233.785156 511.519531 233.515625 511.5 233.246094 511.46875 C 233.003906 511.449219 232.773438 511.429688 232.542969 511.410156 C 232.40625 511.398438 232.265625 511.378906 232.132812 511.367188 C 231.804688 511.339844 231.476562 511.308594 231.144531 511.277344 C 230.703125 511.238281 230.265625 511.1875 229.835938 511.148438 C 229.785156 511.140625 229.734375 511.140625 229.683594 511.128906 C 229.394531 511.097656 229.09375 511.070312 228.804688 511.039062 C 228.074219 510.96875 227.34375 510.878906 226.613281 510.800781 C 226.445312 510.777344 226.273438 510.757812 226.105469 510.738281 C 226.015625 510.730469 225.914062 510.71875 225.824219 510.707031 C 225.253906 510.640625 224.683594 510.570312 224.113281 510.5 C 223.503906 510.429688 222.90625 510.347656 222.304688 510.269531 L 222.265625 510.269531 C 222.085938 510.238281 221.90625 510.21875 221.734375 510.1875 C 221.535156 510.167969 221.335938 510.140625 221.144531 510.109375 C 220.355469 510.007812 219.574219 509.898438 218.796875 509.777344 C 218.367188 509.71875 217.933594 509.660156 217.515625 509.589844 C 217.054688 509.527344 216.59375 509.460938 216.136719 509.378906 C 216.046875 509.367188 215.957031 509.359375 215.867188 509.339844 C 215.816406 509.328125 215.765625 509.320312 215.714844 509.308594 C 215.546875 509.289062 215.375 509.257812 215.207031 509.230469 C 214.9375 509.1875 214.675781 509.148438 214.414062 509.097656 C 214.136719 509.058594 213.855469 509.019531 213.574219 508.960938 C 212.636719 508.808594 211.695312 508.648438 210.757812 508.480469 C 210.324219 508.410156 209.886719 508.328125 209.457031 508.238281 C 209.035156 508.167969 208.617188 508.089844 208.207031 508.007812 C 208.046875 507.988281 207.894531 507.960938 207.734375 507.929688 C 207.324219 507.847656 206.917969 507.769531 206.507812 507.679688 C 206.296875 507.648438 206.085938 507.609375 205.886719 507.558594 C 205.296875 507.449219 204.714844 507.328125 204.136719 507.210938 C 203.117188 507 202.097656 506.789062 201.085938 506.558594 C 200.625 506.460938 200.15625 506.359375 199.695312 506.25 C 199.457031 506.199219 199.214844 506.148438 198.988281 506.089844 C 198.714844 506.039062 198.457031 505.980469 198.195312 505.910156 C 197.796875 505.820312 197.398438 505.730469 196.996094 505.628906 C 196.796875 505.589844 196.605469 505.539062 196.417969 505.488281 C 196.046875 505.410156 195.6875 505.320312 195.316406 505.230469 L 195.308594 505.230469 C 195.246094 505.210938 195.175781 505.199219 195.105469 505.179688 C 194.765625 505.097656 194.425781 505.007812 194.097656 504.929688 C 193.4375 504.769531 192.785156 504.597656 192.128906 504.429688 C 192.097656 504.417969 192.058594 504.417969 192.027344 504.410156 C 191.648438 504.308594 191.265625 504.210938 190.878906 504.109375 C 190.695312 504.070312 190.527344 504.019531 190.347656 503.96875 C 188.996094 503.609375 187.636719 503.238281 186.296875 502.859375 C 186.007812 502.78125 185.726562 502.699219 185.449219 502.621094 C 184.667969 502.398438 183.886719 502.167969 183.117188 501.941406 C 183.058594 501.917969 182.996094 501.910156 182.949219 501.890625 C 181.917969 501.589844 180.90625 501.28125 179.886719 500.960938 C 179.199219 500.75 178.519531 500.53125 177.839844 500.308594 C 177.527344 500.210938 177.21875 500.109375 176.90625 500.019531 L 176.90625 500.007812 C 176.757812 499.960938 176.597656 499.910156 176.449219 499.859375 C 175.578125 499.578125 174.707031 499.289062 173.839844 498.988281 C 173.65625 498.941406 173.488281 498.878906 173.316406 498.820312 C 173.238281 498.789062 173.15625 498.769531 173.078125 498.738281 C 173.027344 498.71875 172.96875 498.699219 172.90625 498.667969 C 172.660156 498.589844 172.398438 498.5 172.148438 498.410156 C 171.75 498.28125 171.339844 498.140625 170.9375 497.988281 C 170.867188 497.96875 170.789062 497.941406 170.707031 497.910156 C 170.660156 497.898438 170.617188 497.878906 170.566406 497.859375 C 170.539062 497.851562 170.507812 497.828125 170.476562 497.820312 C 169.796875 497.589844 169.117188 497.351562 168.449219 497.101562 C 168.007812 496.941406 167.570312 496.78125 167.128906 496.609375 C 166.699219 496.460938 166.269531 496.300781 165.847656 496.140625 C 165.019531 495.820312 164.1875 495.511719 163.359375 495.179688 C 162.949219 495.03125 162.546875 494.871094 162.140625 494.710938 C 161.929688 494.628906 161.730469 494.550781 161.519531 494.460938 C 161.417969 494.421875 161.308594 494.378906 161.207031 494.339844 C 160.558594 494.078125 159.898438 493.820312 159.25 493.550781 C 158.710938 493.328125 158.179688 493.109375 157.648438 492.878906 C 156.359375 492.351562 155.070312 491.800781 153.789062 491.238281 C 153.519531 491.128906 153.25 491.011719 152.980469 490.890625 C 152.878906 490.851562 152.789062 490.808594 152.699219 490.761719 C 152.53125 490.691406 152.347656 490.609375 152.179688 490.53125 C 151.667969 490.308594 151.167969 490.082031 150.660156 489.851562 C 150.609375 489.832031 150.558594 489.808594 150.507812 489.78125 C 149.980469 489.550781 149.449219 489.308594 148.929688 489.058594 C 148.601562 488.910156 148.28125 488.761719 147.949219 488.609375 C 147.871094 488.570312 147.800781 488.539062 147.730469 488.5 C 146.820312 488.082031 145.917969 487.660156 145.03125 487.21875 C 144.730469 487.082031 144.421875 486.929688 144.121094 486.78125 C 143.539062 486.5 142.960938 486.21875 142.378906 485.929688 C 141.671875 485.582031 140.960938 485.21875 140.25 484.859375 C 139.980469 484.71875 139.71875 484.589844 139.46875 484.460938 C 139.050781 484.242188 138.621094 484.019531 138.191406 483.800781 C 137.691406 483.539062 137.199219 483.289062 136.71875 483.03125 C 136.539062 482.929688 136.359375 482.839844 136.179688 482.742188 C 134.609375 481.910156 133.0625 481.070312 131.511719 480.199219 C 131.222656 480.039062 130.921875 479.878906 130.628906 479.710938 C 130.472656 479.621094 130.3125 479.53125 130.160156 479.441406 C 129.832031 479.261719 129.5 479.070312 129.171875 478.882812 C 128.589844 478.550781 128 478.210938 127.421875 477.871094 C 127.269531 477.789062 127.132812 477.710938 126.980469 477.609375 C 126.722656 477.472656 126.460938 477.3125 126.199219 477.160156 C 126.101562 477.109375 126.011719 477.050781 125.921875 476.992188 C 125.351562 476.660156 124.792969 476.320312 124.230469 475.992188 C 124.050781 475.882812 123.871094 475.769531 123.691406 475.660156 C 123.222656 475.382812 122.75 475.089844 122.28125 474.800781 C 121.890625 474.5625 121.5 474.320312 121.113281 474.082031 C 121 474.011719 120.902344 473.949219 120.792969 473.882812 C 119.351562 472.980469 117.921875 472.070312 116.5 471.140625 C 116.050781 470.851562 115.613281 470.5625 115.160156 470.269531 C 115.132812 470.25 115.101562 470.230469 115.070312 470.210938 C 114.890625 470.089844 114.703125 469.960938 114.523438 469.839844 C 113.742188 469.332031 112.972656 468.8125 112.203125 468.28125 C 111.832031 468.03125 111.460938 467.78125 111.09375 467.523438 C 110.910156 467.402344 110.730469 467.273438 110.550781 467.140625 C 110.132812 466.863281 109.710938 466.570312 109.292969 466.273438 C 108.582031 465.78125 107.871094 465.28125 107.171875 464.773438 L 106.632812 464.382812 C 106.492188 464.292969 106.363281 464.191406 106.222656 464.089844 C 105.992188 463.921875 105.753906 463.75 105.523438 463.582031 C 104.863281 463.113281 104.203125 462.621094 103.550781 462.132812 C 103.503906 462.101562 103.453125 462.0625 103.414062 462.03125 C 102.511719 461.363281 101.613281 460.683594 100.722656 460.003906 C 100.613281 459.921875 100.503906 459.84375 100.394531 459.753906 C 100.234375 459.621094 100.0625 459.503906 99.902344 459.371094 C 99.664062 459.191406 99.421875 459.003906 99.183594 458.8125 C 98.222656 458.070312 97.261719 457.3125 96.3125 456.550781 C 96.261719 456.511719 96.203125 456.472656 96.152344 456.421875 C 95.824219 456.164062 95.492188 455.902344 95.171875 455.640625 C 94.472656 455.074219 93.78125 454.511719 93.09375 453.933594 C 92.953125 453.832031 92.824219 453.710938 92.683594 453.601562 C 92.601562 453.53125 92.523438 453.460938 92.441406 453.402344 C 91.53125 452.640625 90.632812 451.882812 89.742188 451.121094 C 89.324219 450.773438 88.914062 450.414062 88.503906 450.050781 L 87.394531 449.09375 C 87.214844 448.941406 87.054688 448.792969 86.882812 448.644531 C 86.511719 448.324219 86.152344 447.992188 85.792969 447.671875 C 85.332031 447.273438 84.882812 446.863281 84.433594 446.460938 C 83.945312 446.011719 83.453125 445.5625 82.964844 445.113281 C 82.785156 444.953125 82.605469 444.78125 82.421875 444.621094 C 82.292969 444.503906 82.164062 444.382812 82.042969 444.273438 C 81.054688 443.351562 80.082031 442.433594 79.113281 441.511719 C 78.964844 441.375 78.824219 441.234375 78.683594 441.09375 C 78.203125 440.644531 77.734375 440.183594 77.265625 439.722656 C 77.085938 439.554688 76.902344 439.375 76.722656 439.203125 C 76.433594 438.914062 76.152344 438.632812 75.863281 438.34375 C 75.425781 437.914062 74.972656 437.472656 74.542969 437.023438 C 74.433594 436.921875 74.335938 436.824219 74.222656 436.714844 C 73.882812 436.375 73.554688 436.035156 73.234375 435.695312 C 73.183594 435.652344 73.144531 435.601562 73.105469 435.5625 C 73.023438 435.484375 72.945312 435.394531 72.863281 435.3125 C 72.8125 435.261719 72.765625 435.214844 72.714844 435.171875 C 72.585938 435.035156 72.453125 434.902344 72.324219 434.773438 C 72.132812 434.582031 71.945312 434.382812 71.753906 434.183594 C 71.472656 433.894531 71.195312 433.605469 70.914062 433.3125 C 70.375 432.753906 69.855469 432.203125 69.324219 431.632812 C 68.914062 431.195312 68.503906 430.753906 68.105469 430.3125 C 67.703125 429.894531 67.316406 429.472656 66.925781 429.042969 L 66.59375 428.683594 C 65.535156 427.515625 64.484375 426.34375 63.453125 425.152344 C 63.324219 425.015625 63.203125 424.875 63.085938 424.734375 C 62.265625 423.792969 61.453125 422.855469 60.644531 421.90625 C 60.585938 421.824219 60.515625 421.746094 60.445312 421.664062 C 60.414062 421.632812 60.386719 421.59375 60.355469 421.554688 C 60.214844 421.394531 60.085938 421.234375 59.945312 421.074219 C 59.644531 420.722656 59.355469 420.375 59.066406 420.015625 C 58.945312 419.882812 58.835938 419.746094 58.734375 419.613281 C 58.554688 419.40625 58.375 419.183594 58.195312 418.964844 C 58.066406 418.804688 57.925781 418.632812 57.796875 418.464844 C 57.753906 418.425781 57.726562 418.394531 57.695312 418.355469 C 57.355469 417.945312 57.023438 417.535156 56.695312 417.125 C 56.296875 416.632812 55.90625 416.144531 55.503906 415.644531 C 55.496094 415.632812 55.484375 415.613281 55.476562 415.605469 C 55.367188 415.464844 55.253906 415.335938 55.15625 415.195312 C 54.824219 414.785156 54.503906 414.375 54.183594 413.964844 C 53.695312 413.34375 53.214844 412.726562 52.734375 412.09375 C 52.503906 411.785156 52.277344 411.484375 52.046875 411.183594 C 51.875 410.964844 51.714844 410.753906 51.554688 410.546875 C 51.15625 410.015625 50.746094 409.476562 50.355469 408.933594 C 49.914062 408.355469 49.484375 407.765625 49.046875 407.164062 C 48.234375 406.046875 47.425781 404.925781 46.636719 403.785156 C 46.554688 403.675781 46.476562 403.574219 46.394531 403.457031 C 45.644531 402.386719 44.90625 401.316406 44.164062 400.226562 C 44.097656 400.125 44.027344 400.027344 43.957031 399.914062 C 43.914062 399.867188 43.875 399.804688 43.835938 399.746094 C 43.265625 398.894531 42.707031 398.046875 42.136719 397.195312 C 41.9375 396.894531 41.734375 396.597656 41.535156 396.296875 C 41.445312 396.144531 41.355469 396.007812 41.257812 395.867188 C 39.886719 393.765625 38.554688 391.644531 37.257812 389.496094 C 37.078125 389.214844 36.894531 388.925781 36.726562 388.636719 C 36.136719 387.644531 35.535156 386.644531 34.957031 385.648438 C 34.945312 385.605469 34.925781 385.578125 34.898438 385.535156 C 34.566406 384.988281 34.257812 384.445312 33.9375 383.898438 C 33.285156 382.757812 32.636719 381.617188 32.007812 380.476562 C 31.585938 379.71875 31.167969 378.957031 30.765625 378.195312 C 30.765625 378.1875 30.757812 378.1875 30.757812 378.175781 C 30.507812 377.746094 30.277344 377.308594 30.046875 376.867188 C 29.847656 376.507812 29.65625 376.136719 29.457031 375.765625 C 28.867188 374.648438 28.277344 373.515625 27.707031 372.378906 C 27.078125 371.15625 26.46875 369.925781 25.867188 368.699219 C 25.078125 367.066406 24.296875 365.4375 23.539062 363.789062 C 22.949219 362.527344 22.378906 361.257812 21.816406 359.988281 C 21.808594 359.96875 21.796875 359.949219 21.789062 359.929688 C 21.789062 359.917969 21.777344 359.90625 21.777344 359.898438 C 21.335938 358.917969 20.917969 357.9375 20.496094 356.957031 C 20.066406 355.957031 19.648438 354.957031 19.238281 353.957031 C 18.847656 353.027344 18.476562 352.097656 18.109375 351.160156 C 17.46875 349.570312 16.859375 347.980469 16.257812 346.390625 C 16.019531 345.757812 15.789062 345.128906 15.558594 344.5 C 15.199219 343.519531 14.835938 342.539062 14.496094 341.550781 C 13.078125 337.519531 11.757812 333.449219 10.539062 329.339844 C 10.226562 328.289062 9.917969 327.238281 9.628906 326.179688 C 9.21875 324.761719 8.828125 323.332031 8.457031 321.898438 C 8.277344 321.210938 8.097656 320.511719 7.917969 319.820312 C 7.648438 318.75 7.378906 317.679688 7.128906 316.609375 C 6.917969 315.761719 6.71875 314.910156 6.527344 314.050781 C 6.386719 313.492188 6.269531 312.929688 6.148438 312.371094 C 5.976562 311.632812 5.816406 310.890625 5.660156 310.152344 C 5.429688 309.070312 5.199219 307.980469 4.988281 306.902344 C 4.769531 305.8125 4.558594 304.722656 4.359375 303.632812 C 4.167969 302.660156 4 301.691406 3.839844 300.722656 C 3.578125 299.300781 3.339844 297.871094 3.128906 296.433594 C 3.019531 295.792969 2.917969 295.152344 2.828125 294.503906 C 2.757812 294.0625 2.6875 293.613281 2.628906 293.164062 C 2.539062 292.511719 2.449219 291.871094 2.359375 291.222656 C 2.269531 290.601562 2.1875 289.980469 2.117188 289.351562 C 2.078125 289.140625 2.058594 288.941406 2.039062 288.730469 C 1.929688 287.890625 1.828125 287.050781 1.730469 286.210938 C 1.6875 285.914062 1.660156 285.601562 1.628906 285.292969 C 1.539062 284.542969 1.457031 283.792969 1.378906 283.042969 C 1.289062 282.144531 1.199219 281.253906 1.117188 280.34375 C 1.039062 279.511719 0.96875 278.683594 0.898438 277.851562 C 0.847656 277.273438 0.796875 276.683594 0.757812 276.101562 C 0.679688 275.042969 0.609375 273.984375 0.539062 272.921875 C 0.449219 271.492188 0.367188 270.0625 0.308594 268.632812 C 0.269531 267.882812 0.238281 267.132812 0.207031 266.382812 C 0.078125 263.09375 0.0195312 259.792969 0.0195312 256.484375 C 0.0195312 255.042969 0.0273438 253.59375 0.0585938 252.164062 C 0.078125 250.964844 0.0976562 249.773438 0.136719 248.59375 C 0.160156 248.054688 0.167969 247.515625 0.199219 246.976562 C 0.238281 245.753906 0.289062 244.535156 0.347656 243.316406 C 0.417969 242.054688 0.488281 240.796875 0.578125 239.535156 C 0.636719 238.476562 0.71875 237.414062 0.796875 236.367188 C 0.847656 235.65625 0.910156 234.9375 0.980469 234.226562 C 1.046875 233.324219 1.128906 232.4375 1.21875 231.546875 C 1.386719 229.796875 1.578125 228.046875 1.789062 226.304688 C 1.910156 225.207031 2.046875 224.097656 2.199219 222.996094 C 2.238281 222.65625 2.277344 222.328125 2.328125 221.988281 C 2.480469 220.785156 2.648438 219.597656 2.839844 218.40625 C 2.847656 218.316406 2.859375 218.226562 2.878906 218.136719 C 2.96875 217.457031 3.078125 216.785156 3.1875 216.105469 C 3.398438 214.785156 3.617188 213.457031 3.847656 212.148438 C 4 211.257812 4.160156 210.367188 4.328125 209.476562 C 4.476562 208.667969 4.628906 207.855469 4.796875 207.046875 C 4.917969 206.386719 5.046875 205.738281 5.179688 205.085938 C 5.617188 202.9375 6.078125 200.808594 6.578125 198.679688 C 6.769531 197.847656 6.957031 197.019531 7.167969 196.199219 C 7.378906 195.277344 7.609375 194.347656 7.847656 193.429688 C 8.058594 192.578125 8.277344 191.738281 8.507812 190.898438 C 8.628906 190.417969 8.757812 189.9375 8.886719 189.449219 C 9.277344 188.007812 9.679688 186.570312 10.097656 185.136719 C 10.367188 184.1875 10.648438 183.25 10.9375 182.308594 C 11.738281 179.648438 12.578125 177.007812 13.46875 174.390625 C 13.808594 173.390625 14.148438 172.410156 14.496094 171.417969 C 14.835938 170.429688 15.199219 169.449219 15.558594 168.46875 C 15.886719 167.550781 16.238281 166.628906 16.585938 165.710938 C 17.398438 163.570312 18.238281 161.441406 19.109375 159.332031 C 19.378906 158.648438 19.667969 157.96875 19.957031 157.289062 C 20.085938 156.980469 20.21875 156.671875 20.335938 156.371094 C 20.636719 155.679688 20.925781 154.992188 21.226562 154.300781 C 22.328125 151.78125 23.46875 149.289062 24.648438 146.820312 C 25.027344 145.992188 25.425781 145.160156 25.835938 144.339844 C 25.96875 144.070312 26.085938 143.8125 26.226562 143.550781 C 26.777344 142.421875 27.335938 141.292969 27.917969 140.171875 C 28.566406 138.902344 29.226562 137.632812 29.90625 136.371094 C 30.496094 135.25 31.097656 134.132812 31.714844 133.023438 C 32.335938 131.882812 32.976562 130.75 33.617188 129.632812 C 33.648438 129.582031 33.667969 129.542969 33.695312 129.492188 C 77.8125 52.425781 160.847656 0.5 256.003906 0.5 C 351.15625 0.5 434.191406 52.425781 478.308594 129.492188 C 478.339844 129.542969 478.359375 129.582031 478.390625 129.632812 C 479.03125 130.75 479.667969 131.882812 480.289062 133.023438 C 480.910156 134.132812 481.507812 135.25 482.097656 136.371094 C 482.78125 137.632812 483.4375 138.902344 484.089844 140.171875 C 484.667969 141.292969 485.230469 142.421875 485.777344 143.550781 C 485.917969 143.8125 486.039062 144.070312 486.167969 144.339844 C 486.578125 145.160156 486.980469 145.992188 487.359375 146.820312 C 488.539062 149.289062 489.679688 151.78125 490.777344 154.300781 C 491.078125 154.992188 491.367188 155.679688 491.667969 156.371094 C 491.789062 156.671875 491.917969 156.980469 492.050781 157.289062 C 492.339844 157.96875 492.628906 158.648438 492.898438 159.332031 C 493.769531 161.441406 494.609375 163.570312 495.417969 165.710938 C 495.769531 166.628906 496.117188 167.550781 496.449219 168.46875 C 496.808594 169.449219 497.167969 170.429688 497.507812 171.417969 C 497.859375 172.410156 498.199219 173.390625 498.539062 174.390625 C 499.429688 177.007812 500.269531 179.648438 501.066406 182.308594 C 501.359375 183.25 501.636719 184.1875 501.910156 185.136719 C 502.328125 186.570312 502.726562 188.007812 503.117188 189.449219 C 503.25 189.9375 503.378906 190.417969 503.5 190.898438 C 503.726562 191.738281 503.949219 192.578125 504.15625 193.429688 C 504.398438 194.347656 504.628906 195.277344 504.839844 196.199219 C 505.046875 197.019531 505.238281 197.847656 505.429688 198.679688 C 505.929688 200.808594 506.386719 202.9375 506.828125 205.085938 C 506.957031 205.738281 507.089844 206.386719 507.207031 207.046875 C 507.378906 207.855469 507.527344 208.667969 507.679688 209.476562 C 507.847656 210.367188 508.007812 211.257812 508.15625 212.148438 C 508.386719 213.457031 508.609375 214.785156 508.816406 216.105469 C 508.929688 216.785156 509.039062 217.457031 509.128906 218.136719 C 509.148438 218.226562 509.15625 218.316406 509.167969 218.40625 C 509.359375 219.597656 509.527344 220.785156 509.679688 221.988281 C 509.726562 222.328125 509.769531 222.65625 509.808594 222.996094 C 509.957031 224.097656 510.097656 225.207031 510.21875 226.304688 C 510.429688 228.046875 510.617188 229.796875 510.789062 231.546875 C 510.878906 232.4375 510.957031 233.324219 511.027344 234.226562 C 511.097656 234.9375 511.15625 235.65625 511.207031 236.367188 C 511.289062 237.414062 511.367188 238.476562 511.425781 239.535156 C 511.519531 240.796875 511.585938 242.054688 511.65625 243.316406 C 511.71875 244.535156 511.769531 245.753906 511.808594 246.976562 C 511.835938 247.515625 511.847656 248.054688 511.867188 248.59375 C 511.90625 249.773438 511.925781 250.964844 511.949219 252.164062 C 511.976562 253.59375 511.988281 255.042969 511.988281 256.484375 Z M 511.988281 256.484375 " style=" stroke:none;fill-rule:nonzero;fill:rgb(61.960784%,41.176471%,88.627451%);fill-opacity:1;" />
<path d="M 512 256.484375 C 512 264.25 511.648438 272.015625 510.949219 279.75 C 506.355469 330.507812 486.242188 379.632812 453.847656 418.988281 C 421.765625 457.960938 378.210938 487.070312 329.867188 501.632812 C 279.238281 516.882812 224.128906 515.96875 174.03125 499.054688 C 74.089844 465.316406 3.378906 369.9375 0.121094 264.492188 C -0.632812 240.035156 2.097656 215.46875 8.265625 191.785156 C 11.371094 179.859375 15.367188 168.164062 20.15625 156.8125 C 22.574219 151.082031 25.21875 145.445312 28.058594 139.910156 C 29.09375 137.890625 31.679688 130.480469 33.855469 129.910156 C 39.570312 137.050781 43.640625 145.765625 49.0625 153.199219 C 54.5625 160.738281 60.476562 167.980469 66.761719 174.878906 C 78.628906 187.898438 91.835938 199.699219 106.109375 210.023438 C 134.175781 230.324219 166.367188 244.859375 200.183594 252.378906 C 270.226562 267.957031 345.175781 253.054688 403.742188 211.574219 C 418.652344 201.011719 432.429688 188.851562 444.777344 175.382812 C 450.949219 168.644531 456.765625 161.582031 462.1875 154.230469 C 465.109375 150.269531 467.917969 146.226562 470.605469 142.101562 C 473.128906 138.226562 475.117188 133.355469 478.195312 129.929688 C 479.484375 130.644531 479.976562 132.410156 480.699219 133.769531 C 482.078125 136.359375 483.472656 138.941406 484.792969 141.5625 C 487.632812 147.21875 490.28125 152.972656 492.699219 158.824219 C 497.78125 171.125 501.886719 183.839844 504.984375 196.789062 C 509.660156 216.320312 512 236.402344 512 256.484375 Z M 512 256.484375 " style=" stroke:none;fill-rule:nonzero;fill:rgb(55.686275%,30.980392%,82.352941%);fill-opacity:1;" />
<path d="M 481.238281 378.171875 C 444.886719 446.671875 375.90625 495.71875 299.65625 508.757812 C 240.152344 518.929688 178 507.746094 125.984375 477.03125 C 85.722656 453.257812 53.097656 418.785156 30.605469 377.90625 C 34.078125 378.90625 39.09375 378.179688 42.839844 378.179688 C 53.539062 378.179688 64.234375 378.179688 74.929688 378.179688 C 110.761719 378.179688 146.589844 378.179688 182.421875 378.179688 C 262.917969 378.179688 343.417969 378.179688 423.914062 378.179688 C 442.644531 378.179688 462.699219 380.125 481.292969 378.066406 C 481.273438 378.101562 481.253906 378.136719 481.238281 378.171875 Z M 481.238281 378.171875 " style=" stroke:none;fill-rule:nonzero;fill:rgb(43.921569%,21.960784%,72.941176%);fill-opacity:1;" />
<path d="M 263.972656 336.738281 L 263.972656 512.347656 C 263.84375 512.347656 263.722656 512.359375 263.59375 512.359375 L 263.371094 512.359375 C 262.710938 512.378906 262.054688 512.398438 261.394531 512.410156 C 260.851562 512.429688 260.3125 512.4375 259.761719 512.4375 C 259.574219 512.449219 259.394531 512.449219 259.203125 512.449219 C 258.132812 512.457031 257.074219 512.46875 256.003906 512.46875 C 255.035156 512.46875 254.0625 512.457031 253.09375 512.449219 L 252.695312 512.449219 C 252.535156 512.449219 252.363281 512.4375 252.203125 512.4375 C 251.832031 512.4375 251.472656 512.429688 251.113281 512.417969 C 250.292969 512.410156 249.484375 512.390625 248.671875 512.367188 C 248.582031 512.359375 248.503906 512.359375 248.414062 512.359375 L 247.664062 512.328125 C 246.804688 512.308594 245.945312 512.277344 245.082031 512.238281 L 244.972656 512.238281 L 244.972656 336.738281 Z M 263.972656 336.738281 " style=" stroke:none;fill-rule:nonzero;fill:rgb(39.607843%,69.803922%,100%);fill-opacity:1;" />
<path d="M 263.253906 340.359375 L 254.023438 362.757812 L 254.023438 362.769531 L 247.664062 378.175781 L 244.972656 384.714844 L 195.316406 505.21875 L 195.316406 505.230469 L 195.308594 505.230469 C 195.246094 505.210938 195.175781 505.199219 195.105469 505.179688 C 194.765625 505.097656 194.425781 505.007812 194.097656 504.929688 C 193.4375 504.769531 192.785156 504.597656 192.128906 504.429688 C 192.097656 504.417969 192.058594 504.417969 192.027344 504.410156 C 191.648438 504.308594 191.265625 504.210938 190.878906 504.109375 C 190.695312 504.070312 190.527344 504.019531 190.347656 503.96875 C 188.996094 503.609375 187.636719 503.238281 186.296875 502.859375 C 186.007812 502.78125 185.726562 502.699219 185.449219 502.621094 C 184.667969 502.398438 183.886719 502.167969 183.117188 501.941406 C 183.058594 501.917969 182.996094 501.910156 182.949219 501.890625 C 181.917969 501.589844 180.90625 501.28125 179.886719 500.960938 C 179.199219 500.75 178.519531 500.53125 177.839844 500.308594 C 177.527344 500.210938 177.21875 500.109375 176.90625 500.019531 L 176.90625 500.007812 L 227.113281 378.175781 L 245.683594 333.121094 L 254.011719 336.550781 L 254.472656 336.738281 Z M 263.253906 340.359375 " style=" stroke:none;fill-rule:nonzero;fill:rgb(100%,100%,100%);fill-opacity:1;" />
<path d="M 331.578125 501.128906 C 330.597656 501.429688 329.617188 501.730469 328.628906 502.019531 C 327.777344 502.269531 326.929688 502.519531 326.078125 502.757812 C 324.949219 503.078125 323.820312 503.390625 322.6875 503.6875 C 322.488281 503.75 322.277344 503.800781 322.078125 503.859375 C 322.007812 503.878906 321.9375 503.898438 321.871094 503.910156 C 321.621094 503.980469 321.378906 504.050781 321.128906 504.109375 C 320.847656 504.179688 320.578125 504.257812 320.300781 504.320312 C 320.039062 504.390625 319.78125 504.460938 319.507812 504.53125 C 318.679688 504.738281 317.839844 504.949219 317.007812 505.148438 C 316.960938 505.167969 316.917969 505.179688 316.871094 505.1875 C 316.449219 505.289062 316.019531 505.390625 315.589844 505.488281 C 315 505.640625 314.410156 505.777344 313.808594 505.910156 C 313.558594 505.96875 313.320312 506.027344 313.070312 506.078125 L 263.972656 386.925781 L 260.371094 378.175781 L 254.023438 362.769531 L 244.972656 340.820312 L 244.785156 340.359375 L 244.972656 340.277344 L 253.5625 336.738281 L 254.011719 336.550781 L 262.34375 333.121094 L 263.832031 336.738281 L 263.972656 337.078125 L 280.910156 378.175781 Z M 331.578125 501.128906 " style=" stroke:none;fill-rule:nonzero;fill:rgb(100%,100%,100%);fill-opacity:1;" />
<path d="M 301.195312 427.625 L 205.640625 427.625 C 200.394531 427.625 196.140625 423.371094 196.140625 418.125 C 196.140625 412.878906 200.394531 408.625 205.640625 408.625 L 301.195312 408.625 C 306.441406 408.625 310.691406 412.878906 310.691406 418.125 C 310.691406 423.371094 306.441406 427.625 301.195312 427.625 Z M 301.195312 427.625 " style=" stroke:none;fill-rule:nonzero;fill:rgb(81.568627%,96.470588%,100%);fill-opacity:1;" />
<path d="M 91.761719 315.488281 L 148.882812 288.433594 L 165.582031 332.226562 L 104.953125 350.082031 Z M 91.761719 315.488281 " style=" stroke:none;fill-rule:nonzero;fill:rgb(100%,100%,100%);fill-opacity:1;" />
<path d="M 437.105469 260.011719 L 399.53125 161.492188 L 144.730469 277.539062 L 169.738281 343.117188 Z M 437.105469 260.011719 " style=" stroke:none;fill-rule:nonzero;fill:rgb(0%,40%,90.980392%);fill-opacity:1;" />
<path d="M 418.316406 210.75 L 399.53125 161.492188 L 144.730469 277.539062 L 157.234375 310.324219 Z M 418.316406 210.75 " style=" stroke:none;fill-rule:nonzero;fill:rgb(39.607843%,69.803922%,100%);fill-opacity:1;" />
<path d="M 418.316406 210.75 L 406.699219 180.292969 L 151.898438 296.335938 L 157.234375 310.324219 Z M 418.316406 210.75 " style=" stroke:none;fill-rule:nonzero;fill:rgb(5.882353%,60.784314%,90.980392%);fill-opacity:1;" />
<path d="M 382.707031 160.957031 L 411.78125 149.867188 L 453.992188 260.527344 L 424.917969 271.617188 Z M 382.707031 160.957031 " style=" stroke:none;fill-rule:nonzero;fill:rgb(45.490196%,49.411765%,61.960784%);fill-opacity:1;" />
<path d="M 392.195312 185.828125 L 421.269531 174.738281 L 453.992188 260.527344 L 424.917969 271.617188 Z M 392.195312 185.828125 " style=" stroke:none;fill-rule:nonzero;fill:rgb(27.843137%,30.980392%,43.529412%);fill-opacity:1;" />
<path d="M 126.675781 273.824219 L 155.75 262.734375 L 187.832031 346.847656 L 158.757812 357.9375 Z M 126.675781 273.824219 " style=" stroke:none;fill-rule:nonzero;fill:rgb(45.490196%,49.411765%,61.960784%);fill-opacity:1;" />
<path d="M 134.363281 293.984375 L 163.4375 282.894531 L 187.832031 346.847656 L 158.757812 357.9375 Z M 134.363281 293.984375 " style=" stroke:none;fill-rule:nonzero;fill:rgb(27.843137%,30.980392%,43.529412%);fill-opacity:1;" />
<path d="M 142.714844 315.878906 L 171.789062 304.789062 L 187.832031 346.847656 L 158.757812 357.9375 Z M 142.714844 315.878906 " style=" stroke:none;fill-rule:nonzero;fill:rgb(19.607843%,23.137255%,35.294118%);fill-opacity:1;" />
<path d="M 58.066406 311.425781 L 95.699219 297.070312 L 120.171875 361.226562 L 82.535156 375.582031 Z M 58.066406 311.425781 " style=" stroke:none;fill-rule:nonzero;fill:rgb(45.490196%,49.411765%,61.960784%);fill-opacity:1;" />
<path d="M 63.132812 324.707031 L 100.765625 310.351562 L 120.171875 361.226562 L 82.535156 375.582031 Z M 63.132812 324.707031 " style=" stroke:none;fill-rule:nonzero;fill:rgb(27.843137%,30.980392%,43.529412%);fill-opacity:1;" />
<path d="M 70.300781 343.5 L 107.933594 329.144531 L 120.171875 361.226562 L 82.535156 375.582031 Z M 70.300781 343.5 " style=" stroke:none;fill-rule:nonzero;fill:rgb(19.607843%,23.137255%,35.294118%);fill-opacity:1;" />
<path d="M 403.8125 216.285156 L 432.886719 205.195312 L 453.992188 260.527344 L 424.917969 271.617188 Z M 403.8125 216.285156 " style=" stroke:none;fill-rule:nonzero;fill:rgb(19.607843%,23.137255%,35.294118%);fill-opacity:1;" />
<path d="M 262.492188 347.570312 L 245.148438 347.570312 C 242.265625 347.570312 239.929688 345.230469 239.929688 342.347656 L 239.929688 326.578125 C 239.929688 323.695312 242.265625 321.359375 245.148438 321.359375 L 262.492188 321.359375 C 265.375 321.359375 267.710938 323.695312 267.710938 326.578125 L 267.710938 342.347656 C 267.710938 345.230469 265.375 347.570312 262.492188 347.570312 Z M 262.492188 347.570312 " style=" stroke:none;fill-rule:nonzero;fill:rgb(19.607843%,23.137255%,35.294118%);fill-opacity:1;" />
<path d="M 274.238281 299.949219 L 232.890625 299.949219 C 229.738281 299.949219 227.183594 302.507812 227.183594 305.660156 L 227.183594 314.992188 C 227.183594 318.144531 229.738281 320.699219 232.890625 320.699219 L 274.238281 320.699219 C 277.390625 320.699219 279.945312 318.144531 279.945312 314.992188 L 279.945312 305.660156 C 279.945312 302.507812 277.390625 299.949219 274.238281 299.949219 Z M 274.238281 299.949219 " style=" stroke:none;fill-rule:nonzero;fill:rgb(100%,62.352941%,0%);fill-opacity:1;" />
<path d="M 276.738281 310.324219 C 276.738281 322.820312 266.605469 332.953125 254.109375 332.953125 C 241.613281 332.953125 231.480469 322.820312 231.480469 310.324219 C 231.480469 297.828125 241.613281 287.699219 254.109375 287.699219 C 266.605469 287.699219 276.738281 297.828125 276.738281 310.324219 Z M 276.738281 310.324219 " style=" stroke:none;fill-rule:nonzero;fill:rgb(100%,81.960784%,7.058824%);fill-opacity:1;" />
<path d="M 267.710938 310.324219 C 267.710938 317.835938 261.621094 323.925781 254.109375 323.925781 C 246.597656 323.925781 240.507812 317.835938 240.507812 310.324219 C 240.507812 302.8125 246.597656 296.722656 254.109375 296.722656 C 261.621094 296.722656 267.710938 302.8125 267.710938 310.324219 Z M 267.710938 310.324219 " style=" stroke:none;fill-rule:nonzero;fill:rgb(100%,62.352941%,0%);fill-opacity:1;" />
<path d="M 257.34375 310.324219 C 257.34375 312.113281 255.894531 313.5625 254.109375 313.5625 C 252.320312 313.5625 250.875 312.113281 250.875 310.324219 C 250.875 308.539062 252.320312 307.089844 254.109375 307.089844 C 255.894531 307.089844 257.34375 308.539062 257.34375 310.324219 Z M 257.34375 310.324219 " style=" stroke:none;fill-rule:nonzero;fill:rgb(19.607843%,23.137255%,35.294118%);fill-opacity:1;" />
<path d="M 397.460938 80.027344 L 395.9375 80.027344 C 389.1875 80.027344 383.710938 74.554688 383.710938 67.800781 L 383.710938 66.277344 L 374.996094 66.277344 L 374.996094 67.800781 C 374.996094 74.554688 369.523438 80.027344 362.769531 80.027344 L 361.246094 80.027344 L 361.246094 88.742188 L 362.769531 88.742188 C 369.523438 88.742188 374.996094 94.21875 374.996094 100.96875 L 374.996094 102.496094 L 383.710938 102.496094 L 383.710938 100.96875 C 383.710938 94.21875 389.1875 88.742188 395.9375 88.742188 L 397.460938 88.742188 Z M 397.460938 80.027344 " style=" stroke:none;fill-rule:nonzero;fill:rgb(100%,81.960784%,7.058824%);fill-opacity:1;" />
<path d="M 451.03125 304.746094 L 449.507812 304.746094 C 442.757812 304.746094 437.28125 299.273438 437.28125 292.519531 L 437.28125 290.996094 L 428.566406 290.996094 L 428.566406 292.519531 C 428.566406 299.273438 423.09375 304.746094 416.339844 304.746094 L 414.816406 304.746094 L 414.816406 313.460938 L 416.339844 313.460938 C 423.09375 313.460938 428.566406 318.9375 428.566406 325.6875 L 428.566406 327.214844 L 437.28125 327.214844 L 437.28125 325.6875 C 437.28125 318.9375 442.757812 313.460938 449.507812 313.460938 L 451.03125 313.460938 Z M 451.03125 304.746094 " style=" stroke:none;fill-rule:nonzero;fill:rgb(100%,81.960784%,7.058824%);fill-opacity:1;" />
<path d="M 185.699219 69.496094 L 184.175781 69.496094 C 177.421875 69.496094 171.949219 64.023438 171.949219 57.269531 L 171.949219 55.746094 L 163.234375 55.746094 L 163.234375 57.269531 C 163.234375 64.023438 157.761719 69.496094 151.007812 69.496094 L 149.484375 69.496094 L 149.484375 78.210938 L 151.007812 78.210938 C 157.761719 78.210938 163.234375 83.683594 163.234375 90.4375 L 163.234375 91.960938 L 171.949219 91.960938 L 171.949219 90.4375 C 171.949219 83.683594 177.421875 78.210938 184.175781 78.210938 L 185.699219 78.210938 Z M 185.699219 69.496094 " style=" stroke:none;fill-rule:nonzero;fill:rgb(100%,81.960784%,7.058824%);fill-opacity:1;" />
<path d="M 293.664062 149.878906 L 292.140625 149.878906 C 285.390625 149.878906 279.914062 144.40625 279.914062 137.652344 L 279.914062 136.128906 L 271.199219 136.128906 L 271.199219 137.652344 C 271.199219 144.40625 265.726562 149.878906 258.972656 149.878906 L 257.449219 149.878906 L 257.449219 158.59375 L 258.972656 158.59375 C 265.726562 158.59375 271.199219 164.066406 271.199219 170.820312 L 271.199219 172.34375 L 279.914062 172.34375 L 279.914062 170.820312 C 279.914062 164.066406 285.390625 158.59375 292.140625 158.59375 L 293.664062 158.59375 Z M 293.664062 149.878906 " style=" stroke:none;fill-rule:nonzero;fill:rgb(100%,100%,100%);fill-opacity:1;" />
<path d="M 109.492188 191.75 L 107.96875 191.75 C 101.214844 191.75 95.742188 186.277344 95.742188 179.523438 L 95.742188 178 L 87.027344 178 L 87.027344 179.523438 C 87.027344 186.277344 81.550781 191.75 74.800781 191.75 L 73.273438 191.75 L 73.273438 200.464844 L 74.800781 200.464844 C 81.550781 200.464844 87.027344 205.9375 87.027344 212.691406 L 87.027344 214.214844 L 95.742188 214.214844 L 95.742188 212.691406 C 95.742188 205.9375 101.214844 200.464844 107.96875 200.464844 L 109.492188 200.464844 Z M 109.492188 191.75 " style=" stroke:none;fill-rule:nonzero;fill:rgb(100%,100%,100%);fill-opacity:1;" />
</g>
</svg>